<mxfile host="65bd71144e" pages="5">
    <diagram id="Hv5B-8PwK2G4hIcCYNjr" name="*従業員情報管理_登録">
        <mxGraphModel dx="1214" dy="739" grid="0" gridSize="10" guides="1" tooltips="1" connect="1" arrows="1" fold="1" page="0" pageScale="1" pageWidth="827" pageHeight="1169" math="0" shadow="0">
            <root>
                <mxCell id="0"/>
                <mxCell id="1" parent="0"/>
                <mxCell id="2" value="ログイン済&lt;br&gt;ホーム画面" style="shape=umlBoundary;whiteSpace=wrap;html=1;fillColor=#dae8fc;strokeColor=#6c8ebf;" parent="1" vertex="1">
                    <mxGeometry x="120" y="40" width="100" height="80" as="geometry"/>
                </mxCell>
                <mxCell id="3" value="従業員情報&lt;br&gt;一覧画面" style="shape=umlBoundary;whiteSpace=wrap;html=1;fillColor=#dae8fc;strokeColor=#6c8ebf;" parent="1" vertex="1">
                    <mxGeometry x="120" y="160" width="100" height="80" as="geometry"/>
                </mxCell>
                <mxCell id="4" value="従業員情報&lt;br&gt;を取得する" style="ellipse;shape=umlControl;whiteSpace=wrap;html=1;fillColor=#f8cecc;strokeColor=#b85450;" parent="1" vertex="1">
                    <mxGeometry x="420" y="40" width="70" height="80" as="geometry"/>
                </mxCell>
                <mxCell id="5" value="" style="endArrow=classic;html=1;rounded=0;exitX=1;exitY=0.5;exitDx=0;exitDy=0;exitPerimeter=0;entryX=-0.019;entryY=0.489;entryDx=0;entryDy=0;entryPerimeter=0;" parent="1" source="2" target="4" edge="1">
                    <mxGeometry width="50" height="50" relative="1" as="geometry">
                        <mxPoint x="240" y="80" as="sourcePoint"/>
                        <mxPoint x="400" y="80" as="targetPoint"/>
                    </mxGeometry>
                </mxCell>
                <mxCell id="7" value="管理者&lt;br&gt;正規社員" style="shape=umlActor;verticalLabelPosition=bottom;verticalAlign=top;html=1;" parent="1" vertex="1">
                    <mxGeometry x="-110" y="173" width="30" height="60" as="geometry"/>
                </mxCell>
                <mxCell id="8" value="新規登録&lt;br&gt;画面" style="shape=umlBoundary;whiteSpace=wrap;html=1;fillColor=#dae8fc;strokeColor=#6c8ebf;" parent="1" vertex="1">
                    <mxGeometry x="120" y="280" width="100" height="80" as="geometry"/>
                </mxCell>
                <mxCell id="9" value="従業員情報&lt;br&gt;モデル" style="ellipse;shape=umlEntity;whiteSpace=wrap;html=1;fillColor=#d5e8d4;strokeColor=#82b366;" parent="1" vertex="1">
                    <mxGeometry x="710" y="160" width="80" height="80" as="geometry"/>
                </mxCell>
                <mxCell id="10" value="" style="endArrow=classic;html=1;rounded=0;exitX=1;exitY=0.5;exitDx=0;exitDy=0;exitPerimeter=0;startArrow=classic;startFill=1;" parent="1" edge="1">
                    <mxGeometry width="50" height="50" relative="1" as="geometry">
                        <mxPoint x="511.3299999999999" y="79.88" as="sourcePoint"/>
                        <mxPoint x="700" y="190" as="targetPoint"/>
                    </mxGeometry>
                </mxCell>
                <mxCell id="11" value="" style="endArrow=none;html=1;rounded=0;startArrow=classic;startFill=1;endFill=0;" parent="1" edge="1">
                    <mxGeometry width="50" height="50" relative="1" as="geometry">
                        <mxPoint x="230" y="193" as="sourcePoint"/>
                        <mxPoint x="410" y="90" as="targetPoint"/>
                    </mxGeometry>
                </mxCell>
                <mxCell id="12" value="表示する" style="ellipse;shape=umlControl;whiteSpace=wrap;html=1;fillColor=#f8cecc;strokeColor=#b85450;" parent="1" vertex="1">
                    <mxGeometry x="420" y="200" width="70" height="80" as="geometry"/>
                </mxCell>
                <mxCell id="13" value="" style="endArrow=none;html=1;rounded=0;startArrow=classic;startFill=1;endFill=0;" parent="1" edge="1">
                    <mxGeometry width="50" height="50" relative="1" as="geometry">
                        <mxPoint x="410" y="240" as="sourcePoint"/>
                        <mxPoint x="232" y="200" as="targetPoint"/>
                    </mxGeometry>
                </mxCell>
                <mxCell id="14" value="" style="endArrow=none;html=1;rounded=0;startArrow=classic;startFill=1;endFill=0;" parent="1" edge="1">
                    <mxGeometry width="50" height="50" relative="1" as="geometry">
                        <mxPoint x="240" y="320" as="sourcePoint"/>
                        <mxPoint x="410" y="250" as="targetPoint"/>
                    </mxGeometry>
                </mxCell>
                <mxCell id="15" value="入力データを検証する" style="ellipse;shape=umlControl;whiteSpace=wrap;html=1;fillColor=#f8cecc;strokeColor=#b85450;" parent="1" vertex="1">
                    <mxGeometry x="420" y="360" width="70" height="80" as="geometry"/>
                </mxCell>
                <mxCell id="16" value="" style="endArrow=classic;html=1;rounded=0;startArrow=classic;startFill=1;endFill=1;" parent="1" edge="1">
                    <mxGeometry width="50" height="50" relative="1" as="geometry">
                        <mxPoint x="400" y="400" as="sourcePoint"/>
                        <mxPoint x="240" y="330" as="targetPoint"/>
                    </mxGeometry>
                </mxCell>
                <mxCell id="17" value="登録する" style="ellipse;shape=umlControl;whiteSpace=wrap;html=1;fillColor=#f8cecc;strokeColor=#b85450;" parent="1" vertex="1">
                    <mxGeometry x="420" y="520" width="70" height="80" as="geometry"/>
                </mxCell>
                <mxCell id="18" value="" style="endArrow=none;html=1;rounded=0;startArrow=classic;startFill=1;endFill=0;" parent="1" source="17" edge="1">
                    <mxGeometry width="50" height="50" relative="1" as="geometry">
                        <mxPoint x="410" y="410" as="sourcePoint"/>
                        <mxPoint x="455" y="450" as="targetPoint"/>
                    </mxGeometry>
                </mxCell>
                <mxCell id="19" value="" style="endArrow=classic;html=1;rounded=0;startArrow=classic;startFill=1;endFill=1;" parent="1" edge="1">
                    <mxGeometry width="50" height="50" relative="1" as="geometry">
                        <mxPoint x="700" y="200" as="sourcePoint"/>
                        <mxPoint x="500" y="560" as="targetPoint"/>
                    </mxGeometry>
                </mxCell>
                <mxCell id="gHbTxZYjRix86hwpBTfX-34" value="従業員情報を&lt;br&gt;新規登録" style="edgeLabel;html=1;align=center;verticalAlign=middle;resizable=0;points=[];" parent="19" vertex="1" connectable="0">
                    <mxGeometry x="0.0908" y="4" relative="1" as="geometry">
                        <mxPoint x="15" y="-43" as="offset"/>
                    </mxGeometry>
                </mxCell>
                <mxCell id="22" value="入力エラー時は&lt;br&gt;エラーメッセージ&lt;br&gt;を表示" style="text;html=1;strokeColor=none;fillColor=none;align=center;verticalAlign=middle;whiteSpace=wrap;rounded=0;" parent="1" vertex="1">
                    <mxGeometry x="170" y="360" width="160" height="30" as="geometry"/>
                </mxCell>
                <mxCell id="23" value="登録完了画面" style="shape=umlBoundary;whiteSpace=wrap;html=1;fillColor=#dae8fc;strokeColor=#6c8ebf;" parent="1" vertex="1">
                    <mxGeometry x="120" y="480" width="100" height="80" as="geometry"/>
                </mxCell>
                <mxCell id="24" value="" style="endArrow=none;html=1;rounded=0;startArrow=classic;startFill=1;endFill=0;jumpStyle=arc;" parent="1" edge="1">
                    <mxGeometry width="50" height="50" relative="1" as="geometry">
                        <mxPoint x="240" y="520" as="sourcePoint"/>
                        <mxPoint x="440" y="130" as="targetPoint"/>
                    </mxGeometry>
                </mxCell>
                <mxCell id="25" value="" style="endArrow=classic;html=1;rounded=0;" parent="1" edge="1">
                    <mxGeometry width="50" height="50" relative="1" as="geometry">
                        <mxPoint x="-60" y="200" as="sourcePoint"/>
                        <mxPoint x="110" y="80" as="targetPoint"/>
                    </mxGeometry>
                </mxCell>
                <mxCell id="30" value="「従業員情報マスタ」&lt;br&gt;を押下" style="edgeLabel;html=1;align=center;verticalAlign=middle;resizable=0;points=[];" parent="25" vertex="1" connectable="0">
                    <mxGeometry x="-0.2219" relative="1" as="geometry">
                        <mxPoint x="22" y="-12" as="offset"/>
                    </mxGeometry>
                </mxCell>
                <mxCell id="26" value="" style="endArrow=classic;html=1;rounded=0;" parent="1" edge="1">
                    <mxGeometry width="50" height="50" relative="1" as="geometry">
                        <mxPoint x="-60" y="200" as="sourcePoint"/>
                        <mxPoint x="110" y="200" as="targetPoint"/>
                    </mxGeometry>
                </mxCell>
                <mxCell id="32" value="「新規登録」を押下" style="edgeLabel;html=1;align=center;verticalAlign=middle;resizable=0;points=[];" parent="26" vertex="1" connectable="0">
                    <mxGeometry x="0.1901" y="-2" relative="1" as="geometry">
                        <mxPoint as="offset"/>
                    </mxGeometry>
                </mxCell>
                <mxCell id="27" value="" style="endArrow=classic;html=1;rounded=0;" parent="1" edge="1">
                    <mxGeometry width="50" height="50" relative="1" as="geometry">
                        <mxPoint x="-60" y="200" as="sourcePoint"/>
                        <mxPoint x="110" y="320" as="targetPoint"/>
                    </mxGeometry>
                </mxCell>
                <mxCell id="33" value="従業員情報を入力" style="edgeLabel;html=1;align=center;verticalAlign=middle;resizable=0;points=[];" parent="27" vertex="1" connectable="0">
                    <mxGeometry x="0.1507" y="-2" relative="1" as="geometry">
                        <mxPoint as="offset"/>
                    </mxGeometry>
                </mxCell>
                <mxCell id="28" value="" style="endArrow=classic;html=1;rounded=0;" parent="1" edge="1">
                    <mxGeometry width="50" height="50" relative="1" as="geometry">
                        <mxPoint x="-60" y="200" as="sourcePoint"/>
                        <mxPoint x="110" y="520" as="targetPoint"/>
                    </mxGeometry>
                </mxCell>
                <mxCell id="29" value="従業員情報管理_登録" style="rounded=0;whiteSpace=wrap;html=1;fillColor=#ffe6cc;strokeColor=#d79b00;fontStyle=1;fontSize=18;" parent="1" vertex="1">
                    <mxGeometry x="-138" y="-37" width="189" height="60" as="geometry"/>
                </mxCell>
                <mxCell id="34" value="" style="curved=1;endArrow=classic;html=1;rounded=0;entryX=0.91;entryY=0.982;entryDx=0;entryDy=0;entryPerimeter=0;" parent="1" source="17" target="4" edge="1">
                    <mxGeometry width="50" height="50" relative="1" as="geometry">
                        <mxPoint x="140" y="330" as="sourcePoint"/>
                        <mxPoint x="190" y="280" as="targetPoint"/>
                        <Array as="points">
                            <mxPoint x="550" y="370"/>
                            <mxPoint x="520" y="210"/>
                        </Array>
                    </mxGeometry>
                </mxCell>
                <mxCell id="35" value="&lt;div style=&quot;color: rgb(177 , 231 , 177) ; background-color: rgb(0 , 32 , 32) ; font-family: &amp;#34;consolas&amp;#34; , &amp;#34;courier new&amp;#34; , monospace ; font-size: 14px ; line-height: 19px&quot;&gt;&lt;/div&gt;CustomUser&lt;br&gt;モデル" style="ellipse;shape=umlEntity;whiteSpace=wrap;html=1;fillColor=#d5e8d4;strokeColor=#82b366;" vertex="1" parent="1">
                    <mxGeometry x="710" y="49" width="80" height="80" as="geometry"/>
                </mxCell>
                <mxCell id="38" value="" style="endArrow=classic;html=1;rounded=0;startArrow=classic;startFill=1;" edge="1" parent="1">
                    <mxGeometry width="50" height="50" relative="1" as="geometry">
                        <mxPoint x="515" y="75" as="sourcePoint"/>
                        <mxPoint x="696" y="85" as="targetPoint"/>
                    </mxGeometry>
                </mxCell>
                <mxCell id="42" value="従業員IDを&lt;br&gt;取得する" style="edgeLabel;html=1;align=center;verticalAlign=middle;resizable=0;points=[];" vertex="1" connectable="0" parent="38">
                    <mxGeometry x="0.1118" y="1" relative="1" as="geometry">
                        <mxPoint x="-3" as="offset"/>
                    </mxGeometry>
                </mxCell>
            </root>
        </mxGraphModel>
    </diagram>
    <diagram id="1LEc2-5TT9iGUVNX-sWB" name="*従業員情報管理_参照">
        <mxGraphModel dx="1214" dy="739" grid="0" gridSize="10" guides="1" tooltips="1" connect="1" arrows="1" fold="1" page="0" pageScale="1" pageWidth="827" pageHeight="1169" math="0" shadow="0">
            <root>
                <mxCell id="teE-KG6T1Xzd7_iqs4cO-0"/>
                <mxCell id="teE-KG6T1Xzd7_iqs4cO-1" parent="teE-KG6T1Xzd7_iqs4cO-0"/>
                <mxCell id="teE-KG6T1Xzd7_iqs4cO-3" value="ログイン済&lt;br&gt;ホーム画面" style="shape=umlBoundary;whiteSpace=wrap;html=1;fillColor=#dae8fc;strokeColor=#6c8ebf;" parent="teE-KG6T1Xzd7_iqs4cO-1" vertex="1">
                    <mxGeometry x="120" y="40" width="100" height="80" as="geometry"/>
                </mxCell>
                <mxCell id="teE-KG6T1Xzd7_iqs4cO-4" value="従業員情報&lt;br&gt;一覧画面" style="shape=umlBoundary;whiteSpace=wrap;html=1;fillColor=#dae8fc;strokeColor=#6c8ebf;" parent="teE-KG6T1Xzd7_iqs4cO-1" vertex="1">
                    <mxGeometry x="120" y="160" width="100" height="80" as="geometry"/>
                </mxCell>
                <mxCell id="teE-KG6T1Xzd7_iqs4cO-5" value="従業員情報&lt;br&gt;を取得する" style="ellipse;shape=umlControl;whiteSpace=wrap;html=1;fillColor=#f8cecc;strokeColor=#b85450;" parent="teE-KG6T1Xzd7_iqs4cO-1" vertex="1">
                    <mxGeometry x="420" y="40" width="70" height="80" as="geometry"/>
                </mxCell>
                <mxCell id="teE-KG6T1Xzd7_iqs4cO-6" value="従業員情報&lt;br&gt;モデル" style="ellipse;shape=umlEntity;whiteSpace=wrap;html=1;fillColor=#d5e8d4;strokeColor=#82b366;" parent="teE-KG6T1Xzd7_iqs4cO-1" vertex="1">
                    <mxGeometry x="640" y="120" width="80" height="80" as="geometry"/>
                </mxCell>
                <mxCell id="teE-KG6T1Xzd7_iqs4cO-7" value="表示する" style="ellipse;shape=umlControl;whiteSpace=wrap;html=1;fillColor=#f8cecc;strokeColor=#b85450;" parent="teE-KG6T1Xzd7_iqs4cO-1" vertex="1">
                    <mxGeometry x="420" y="210" width="70" height="80" as="geometry"/>
                </mxCell>
                <mxCell id="teE-KG6T1Xzd7_iqs4cO-8" value="詳細画面" style="shape=umlBoundary;whiteSpace=wrap;html=1;fillColor=#dae8fc;strokeColor=#6c8ebf;" parent="teE-KG6T1Xzd7_iqs4cO-1" vertex="1">
                    <mxGeometry x="120" y="280" width="100" height="80" as="geometry"/>
                </mxCell>
                <mxCell id="teE-KG6T1Xzd7_iqs4cO-9" value="" style="endArrow=classic;html=1;rounded=0;exitX=1;exitY=0.5;exitDx=0;exitDy=0;exitPerimeter=0;entryX=-0.019;entryY=0.489;entryDx=0;entryDy=0;entryPerimeter=0;" parent="teE-KG6T1Xzd7_iqs4cO-1" source="teE-KG6T1Xzd7_iqs4cO-3" target="teE-KG6T1Xzd7_iqs4cO-5" edge="1">
                    <mxGeometry width="50" height="50" relative="1" as="geometry">
                        <mxPoint x="240" y="80" as="sourcePoint"/>
                        <mxPoint x="400" y="80" as="targetPoint"/>
                    </mxGeometry>
                </mxCell>
                <mxCell id="teE-KG6T1Xzd7_iqs4cO-11" value="" style="endArrow=classic;html=1;rounded=0;" parent="teE-KG6T1Xzd7_iqs4cO-1" edge="1">
                    <mxGeometry width="50" height="50" relative="1" as="geometry">
                        <mxPoint x="410" y="90" as="sourcePoint"/>
                        <mxPoint x="240" y="200" as="targetPoint"/>
                    </mxGeometry>
                </mxCell>
                <mxCell id="teE-KG6T1Xzd7_iqs4cO-12" value="" style="endArrow=classic;html=1;rounded=0;" parent="teE-KG6T1Xzd7_iqs4cO-1" edge="1">
                    <mxGeometry width="50" height="50" relative="1" as="geometry">
                        <mxPoint x="240" y="210" as="sourcePoint"/>
                        <mxPoint x="410" y="260" as="targetPoint"/>
                    </mxGeometry>
                </mxCell>
                <mxCell id="teE-KG6T1Xzd7_iqs4cO-13" value="" style="endArrow=classic;html=1;rounded=0;" parent="teE-KG6T1Xzd7_iqs4cO-1" edge="1">
                    <mxGeometry width="50" height="50" relative="1" as="geometry">
                        <mxPoint x="400" y="270" as="sourcePoint"/>
                        <mxPoint x="240" y="320" as="targetPoint"/>
                    </mxGeometry>
                </mxCell>
                <mxCell id="teE-KG6T1Xzd7_iqs4cO-14" value="" style="endArrow=classic;html=1;rounded=0;startArrow=classic;startFill=1;" parent="teE-KG6T1Xzd7_iqs4cO-1" edge="1">
                    <mxGeometry width="50" height="50" relative="1" as="geometry">
                        <mxPoint x="500" y="80" as="sourcePoint"/>
                        <mxPoint x="630" y="150" as="targetPoint"/>
                    </mxGeometry>
                </mxCell>
                <mxCell id="GUXRypuZOEhrL2tdMeo5-0" value="従業員情報管理_参照" style="rounded=0;whiteSpace=wrap;html=1;fillColor=#ffe6cc;strokeColor=#d79b00;fontStyle=1;fontSize=18;" parent="teE-KG6T1Xzd7_iqs4cO-1" vertex="1">
                    <mxGeometry x="-138" y="-37" width="189" height="60" as="geometry"/>
                </mxCell>
                <mxCell id="yc1Dgl9wyBoy2emGXdmd-0" value="管理者&lt;br&gt;正規社員" style="shape=umlActor;verticalLabelPosition=bottom;verticalAlign=top;html=1;" parent="teE-KG6T1Xzd7_iqs4cO-1" vertex="1">
                    <mxGeometry x="-110" y="173" width="30" height="60" as="geometry"/>
                </mxCell>
                <mxCell id="yc1Dgl9wyBoy2emGXdmd-1" value="" style="endArrow=classic;html=1;rounded=0;" parent="teE-KG6T1Xzd7_iqs4cO-1" edge="1">
                    <mxGeometry width="50" height="50" relative="1" as="geometry">
                        <mxPoint x="-60" y="200" as="sourcePoint"/>
                        <mxPoint x="110" y="80" as="targetPoint"/>
                    </mxGeometry>
                </mxCell>
                <mxCell id="yc1Dgl9wyBoy2emGXdmd-2" value="「従業員情報マスタ」&lt;br&gt;を押下" style="edgeLabel;html=1;align=center;verticalAlign=middle;resizable=0;points=[];" parent="yc1Dgl9wyBoy2emGXdmd-1" vertex="1" connectable="0">
                    <mxGeometry x="-0.2219" relative="1" as="geometry">
                        <mxPoint x="17" y="-13" as="offset"/>
                    </mxGeometry>
                </mxCell>
                <mxCell id="yc1Dgl9wyBoy2emGXdmd-3" value="" style="endArrow=classic;html=1;rounded=0;" parent="teE-KG6T1Xzd7_iqs4cO-1" edge="1">
                    <mxGeometry width="50" height="50" relative="1" as="geometry">
                        <mxPoint x="-60" y="200" as="sourcePoint"/>
                        <mxPoint x="110" y="200" as="targetPoint"/>
                    </mxGeometry>
                </mxCell>
                <mxCell id="yc1Dgl9wyBoy2emGXdmd-4" value="従業員を選択" style="edgeLabel;html=1;align=center;verticalAlign=middle;resizable=0;points=[];" parent="yc1Dgl9wyBoy2emGXdmd-3" vertex="1" connectable="0">
                    <mxGeometry x="0.1901" y="-2" relative="1" as="geometry">
                        <mxPoint as="offset"/>
                    </mxGeometry>
                </mxCell>
                <mxCell id="yc1Dgl9wyBoy2emGXdmd-5" value="" style="endArrow=classic;html=1;rounded=0;" parent="teE-KG6T1Xzd7_iqs4cO-1" edge="1">
                    <mxGeometry width="50" height="50" relative="1" as="geometry">
                        <mxPoint x="-60" y="200" as="sourcePoint"/>
                        <mxPoint x="110" y="320" as="targetPoint"/>
                    </mxGeometry>
                </mxCell>
                <mxCell id="Bje9i6lHRft2zSghojRa-0" value="&lt;div style=&quot;color: rgb(177 , 231 , 177) ; background-color: rgb(0 , 32 , 32) ; font-family: &amp;#34;consolas&amp;#34; , &amp;#34;courier new&amp;#34; , monospace ; font-size: 14px ; line-height: 19px&quot;&gt;&lt;/div&gt;CustomUser&lt;br&gt;モデル" style="ellipse;shape=umlEntity;whiteSpace=wrap;html=1;fillColor=#d5e8d4;strokeColor=#82b366;" vertex="1" parent="teE-KG6T1Xzd7_iqs4cO-1">
                    <mxGeometry x="640" y="11" width="80" height="80" as="geometry"/>
                </mxCell>
                <mxCell id="Bje9i6lHRft2zSghojRa-1" value="" style="endArrow=classic;html=1;rounded=0;startArrow=classic;startFill=1;" edge="1" parent="teE-KG6T1Xzd7_iqs4cO-1">
                    <mxGeometry width="50" height="50" relative="1" as="geometry">
                        <mxPoint x="503" y="71" as="sourcePoint"/>
                        <mxPoint x="626" y="47" as="targetPoint"/>
                    </mxGeometry>
                </mxCell>
                <mxCell id="Bje9i6lHRft2zSghojRa-2" value="従業員IDを&lt;br&gt;取得する" style="edgeLabel;html=1;align=center;verticalAlign=middle;resizable=0;points=[];" vertex="1" connectable="0" parent="Bje9i6lHRft2zSghojRa-1">
                    <mxGeometry x="0.1118" y="1" relative="1" as="geometry">
                        <mxPoint x="-3" as="offset"/>
                    </mxGeometry>
                </mxCell>
            </root>
        </mxGraphModel>
    </diagram>
    <diagram id="OLmLsMBLRtIgLy6cQK2p" name="*従業員情報管理_編集">
        <mxGraphModel dx="1214" dy="739" grid="0" gridSize="10" guides="1" tooltips="1" connect="1" arrows="1" fold="1" page="0" pageScale="1" pageWidth="827" pageHeight="1169" math="0" shadow="0">
            <root>
                <mxCell id="M7JWOXm7xKOBKCvq_NVv-0"/>
                <mxCell id="M7JWOXm7xKOBKCvq_NVv-1" parent="M7JWOXm7xKOBKCvq_NVv-0"/>
                <mxCell id="M7JWOXm7xKOBKCvq_NVv-3" value="ログイン済&lt;br&gt;ホーム画面" style="shape=umlBoundary;whiteSpace=wrap;html=1;fillColor=#dae8fc;strokeColor=#6c8ebf;" parent="M7JWOXm7xKOBKCvq_NVv-1" vertex="1">
                    <mxGeometry x="120" y="40" width="100" height="80" as="geometry"/>
                </mxCell>
                <mxCell id="M7JWOXm7xKOBKCvq_NVv-4" value="従業員情報&lt;br&gt;一覧画面" style="shape=umlBoundary;whiteSpace=wrap;html=1;fillColor=#dae8fc;strokeColor=#6c8ebf;" parent="M7JWOXm7xKOBKCvq_NVv-1" vertex="1">
                    <mxGeometry x="120" y="160" width="100" height="80" as="geometry"/>
                </mxCell>
                <mxCell id="M7JWOXm7xKOBKCvq_NVv-5" value="従業員情報&lt;br&gt;を取得する" style="ellipse;shape=umlControl;whiteSpace=wrap;html=1;fillColor=#f8cecc;strokeColor=#b85450;" parent="M7JWOXm7xKOBKCvq_NVv-1" vertex="1">
                    <mxGeometry x="420" y="40" width="70" height="80" as="geometry"/>
                </mxCell>
                <mxCell id="M7JWOXm7xKOBKCvq_NVv-6" value="従業員情報&lt;br&gt;モデル" style="ellipse;shape=umlEntity;whiteSpace=wrap;html=1;fillColor=#d5e8d4;strokeColor=#82b366;" parent="M7JWOXm7xKOBKCvq_NVv-1" vertex="1">
                    <mxGeometry x="640" y="120" width="80" height="80" as="geometry"/>
                </mxCell>
                <mxCell id="M7JWOXm7xKOBKCvq_NVv-7" value="表示する" style="ellipse;shape=umlControl;whiteSpace=wrap;html=1;fillColor=#f8cecc;strokeColor=#b85450;" parent="M7JWOXm7xKOBKCvq_NVv-1" vertex="1">
                    <mxGeometry x="420" y="160" width="70" height="80" as="geometry"/>
                </mxCell>
                <mxCell id="M7JWOXm7xKOBKCvq_NVv-8" value="詳細画面" style="shape=umlBoundary;whiteSpace=wrap;html=1;fillColor=#dae8fc;strokeColor=#6c8ebf;" parent="M7JWOXm7xKOBKCvq_NVv-1" vertex="1">
                    <mxGeometry x="120" y="280" width="100" height="80" as="geometry"/>
                </mxCell>
                <mxCell id="M7JWOXm7xKOBKCvq_NVv-9" value="" style="endArrow=classic;html=1;rounded=0;exitX=1;exitY=0.5;exitDx=0;exitDy=0;exitPerimeter=0;entryX=-0.019;entryY=0.489;entryDx=0;entryDy=0;entryPerimeter=0;" parent="M7JWOXm7xKOBKCvq_NVv-1" source="M7JWOXm7xKOBKCvq_NVv-3" target="M7JWOXm7xKOBKCvq_NVv-5" edge="1">
                    <mxGeometry width="50" height="50" relative="1" as="geometry">
                        <mxPoint x="240" y="80" as="sourcePoint"/>
                        <mxPoint x="400" y="80" as="targetPoint"/>
                    </mxGeometry>
                </mxCell>
                <mxCell id="M7JWOXm7xKOBKCvq_NVv-11" value="" style="endArrow=classic;html=1;rounded=0;" parent="M7JWOXm7xKOBKCvq_NVv-1" edge="1">
                    <mxGeometry width="50" height="50" relative="1" as="geometry">
                        <mxPoint x="410" y="90" as="sourcePoint"/>
                        <mxPoint x="240" y="190" as="targetPoint"/>
                    </mxGeometry>
                </mxCell>
                <mxCell id="M7JWOXm7xKOBKCvq_NVv-12" value="" style="endArrow=classic;html=1;rounded=0;" parent="M7JWOXm7xKOBKCvq_NVv-1" edge="1">
                    <mxGeometry width="50" height="50" relative="1" as="geometry">
                        <mxPoint x="240" y="200" as="sourcePoint"/>
                        <mxPoint x="410" y="200" as="targetPoint"/>
                    </mxGeometry>
                </mxCell>
                <mxCell id="M7JWOXm7xKOBKCvq_NVv-13" value="" style="endArrow=classic;html=1;rounded=0;startArrow=classic;startFill=1;" parent="M7JWOXm7xKOBKCvq_NVv-1" edge="1">
                    <mxGeometry width="50" height="50" relative="1" as="geometry">
                        <mxPoint x="410" y="210" as="sourcePoint"/>
                        <mxPoint x="240" y="320" as="targetPoint"/>
                    </mxGeometry>
                </mxCell>
                <mxCell id="M7JWOXm7xKOBKCvq_NVv-14" value="" style="endArrow=classic;html=1;rounded=0;startArrow=classic;startFill=1;" parent="M7JWOXm7xKOBKCvq_NVv-1" edge="1">
                    <mxGeometry width="50" height="50" relative="1" as="geometry">
                        <mxPoint x="500" y="80" as="sourcePoint"/>
                        <mxPoint x="630" y="160" as="targetPoint"/>
                    </mxGeometry>
                </mxCell>
                <mxCell id="M7JWOXm7xKOBKCvq_NVv-15" value="編集画面" style="shape=umlBoundary;whiteSpace=wrap;html=1;fillColor=#dae8fc;strokeColor=#6c8ebf;" parent="M7JWOXm7xKOBKCvq_NVv-1" vertex="1">
                    <mxGeometry x="120" y="400" width="100" height="80" as="geometry"/>
                </mxCell>
                <mxCell id="M7JWOXm7xKOBKCvq_NVv-16" value="" style="endArrow=classic;html=1;rounded=0;" parent="M7JWOXm7xKOBKCvq_NVv-1" edge="1">
                    <mxGeometry width="50" height="50" relative="1" as="geometry">
                        <mxPoint x="410" y="220" as="sourcePoint"/>
                        <mxPoint x="240" y="430" as="targetPoint"/>
                    </mxGeometry>
                </mxCell>
                <mxCell id="M7JWOXm7xKOBKCvq_NVv-17" value="入力データ検証" style="ellipse;shape=umlControl;whiteSpace=wrap;html=1;fillColor=#f8cecc;strokeColor=#b85450;" parent="M7JWOXm7xKOBKCvq_NVv-1" vertex="1">
                    <mxGeometry x="420" y="400" width="70" height="80" as="geometry"/>
                </mxCell>
                <mxCell id="M7JWOXm7xKOBKCvq_NVv-18" value="" style="endArrow=classic;html=1;rounded=0;startArrow=classic;startFill=1;" parent="M7JWOXm7xKOBKCvq_NVv-1" edge="1">
                    <mxGeometry width="50" height="50" relative="1" as="geometry">
                        <mxPoint x="240" y="440" as="sourcePoint"/>
                        <mxPoint x="410" y="440" as="targetPoint"/>
                    </mxGeometry>
                </mxCell>
                <mxCell id="3eAqccCFtA6U_8-MhlXx-1" value="入力エラー時は&lt;br&gt;エラーメッセージを表示" style="edgeLabel;html=1;align=center;verticalAlign=middle;resizable=0;points=[];" parent="M7JWOXm7xKOBKCvq_NVv-18" vertex="1" connectable="0">
                    <mxGeometry x="-0.1834" relative="1" as="geometry">
                        <mxPoint x="21" as="offset"/>
                    </mxGeometry>
                </mxCell>
                <mxCell id="M7JWOXm7xKOBKCvq_NVv-19" value="更新する" style="ellipse;shape=umlControl;whiteSpace=wrap;html=1;fillColor=#f8cecc;strokeColor=#b85450;" parent="M7JWOXm7xKOBKCvq_NVv-1" vertex="1">
                    <mxGeometry x="420" y="280" width="70" height="80" as="geometry"/>
                </mxCell>
                <mxCell id="M7JWOXm7xKOBKCvq_NVv-20" value="" style="endArrow=classic;html=1;rounded=0;" parent="M7JWOXm7xKOBKCvq_NVv-1" source="M7JWOXm7xKOBKCvq_NVv-17" edge="1">
                    <mxGeometry width="50" height="50" relative="1" as="geometry">
                        <mxPoint x="455" y="390" as="sourcePoint"/>
                        <mxPoint x="455" y="370" as="targetPoint"/>
                    </mxGeometry>
                </mxCell>
                <mxCell id="M7JWOXm7xKOBKCvq_NVv-21" value="" style="endArrow=classic;html=1;rounded=0;startArrow=classic;startFill=1;" parent="M7JWOXm7xKOBKCvq_NVv-1" edge="1">
                    <mxGeometry width="50" height="50" relative="1" as="geometry">
                        <mxPoint x="500" y="320" as="sourcePoint"/>
                        <mxPoint x="630" y="170" as="targetPoint"/>
                    </mxGeometry>
                </mxCell>
                <mxCell id="oPCkh6VTPUrtZ9OKTkWk-0" value="従業員情報を&lt;br&gt;更新" style="edgeLabel;html=1;align=center;verticalAlign=middle;resizable=0;points=[];" parent="M7JWOXm7xKOBKCvq_NVv-21" vertex="1" connectable="0">
                    <mxGeometry x="0.1719" y="1" relative="1" as="geometry">
                        <mxPoint y="9" as="offset"/>
                    </mxGeometry>
                </mxCell>
                <mxCell id="RmUKCtQS75bO6TPGUb9W-0" value="従業員情報管理_編集" style="rounded=0;whiteSpace=wrap;html=1;fillColor=#ffe6cc;strokeColor=#d79b00;fontStyle=1;fontSize=18;" parent="M7JWOXm7xKOBKCvq_NVv-1" vertex="1">
                    <mxGeometry x="-138" y="-37" width="189" height="60" as="geometry"/>
                </mxCell>
                <mxCell id="Q3QKWWCa-f-8Z-aexDkw-0" value="管理者&lt;br&gt;正規社員" style="shape=umlActor;verticalLabelPosition=bottom;verticalAlign=top;html=1;" parent="M7JWOXm7xKOBKCvq_NVv-1" vertex="1">
                    <mxGeometry x="-110" y="173" width="30" height="60" as="geometry"/>
                </mxCell>
                <mxCell id="Q3QKWWCa-f-8Z-aexDkw-1" value="" style="endArrow=classic;html=1;rounded=0;" parent="M7JWOXm7xKOBKCvq_NVv-1" edge="1">
                    <mxGeometry width="50" height="50" relative="1" as="geometry">
                        <mxPoint x="-60" y="200" as="sourcePoint"/>
                        <mxPoint x="110" y="80" as="targetPoint"/>
                    </mxGeometry>
                </mxCell>
                <mxCell id="Q3QKWWCa-f-8Z-aexDkw-2" value="「従業員情報マスタ」&lt;br&gt;を押下" style="edgeLabel;html=1;align=center;verticalAlign=middle;resizable=0;points=[];" parent="Q3QKWWCa-f-8Z-aexDkw-1" vertex="1" connectable="0">
                    <mxGeometry x="-0.2219" relative="1" as="geometry">
                        <mxPoint x="24" y="-13" as="offset"/>
                    </mxGeometry>
                </mxCell>
                <mxCell id="Q3QKWWCa-f-8Z-aexDkw-3" value="" style="endArrow=classic;html=1;rounded=0;" parent="M7JWOXm7xKOBKCvq_NVv-1" edge="1">
                    <mxGeometry width="50" height="50" relative="1" as="geometry">
                        <mxPoint x="-60" y="200" as="sourcePoint"/>
                        <mxPoint x="110" y="200" as="targetPoint"/>
                    </mxGeometry>
                </mxCell>
                <mxCell id="Q3QKWWCa-f-8Z-aexDkw-4" value="従業員を選択" style="edgeLabel;html=1;align=center;verticalAlign=middle;resizable=0;points=[];" parent="Q3QKWWCa-f-8Z-aexDkw-3" vertex="1" connectable="0">
                    <mxGeometry x="0.1901" y="-2" relative="1" as="geometry">
                        <mxPoint as="offset"/>
                    </mxGeometry>
                </mxCell>
                <mxCell id="Q3QKWWCa-f-8Z-aexDkw-5" value="" style="endArrow=classic;html=1;rounded=0;" parent="M7JWOXm7xKOBKCvq_NVv-1" edge="1">
                    <mxGeometry width="50" height="50" relative="1" as="geometry">
                        <mxPoint x="-60" y="200" as="sourcePoint"/>
                        <mxPoint x="110" y="320" as="targetPoint"/>
                    </mxGeometry>
                </mxCell>
                <mxCell id="VSu1B_-EwK-Grr8kOihJ-1" value="「編集」を押下" style="edgeLabel;html=1;align=center;verticalAlign=middle;resizable=0;points=[];" parent="Q3QKWWCa-f-8Z-aexDkw-5" vertex="1" connectable="0">
                    <mxGeometry x="-0.1766" y="1" relative="1" as="geometry">
                        <mxPoint x="19" y="11" as="offset"/>
                    </mxGeometry>
                </mxCell>
                <mxCell id="Q3QKWWCa-f-8Z-aexDkw-6" value="" style="endArrow=classic;html=1;rounded=0;" parent="M7JWOXm7xKOBKCvq_NVv-1" edge="1">
                    <mxGeometry width="50" height="50" relative="1" as="geometry">
                        <mxPoint x="-60" y="200" as="sourcePoint"/>
                        <mxPoint x="110" y="440" as="targetPoint"/>
                    </mxGeometry>
                </mxCell>
                <mxCell id="3eAqccCFtA6U_8-MhlXx-0" value="従業員情報を入力し&lt;br&gt;「更新」を押下" style="edgeLabel;html=1;align=center;verticalAlign=middle;resizable=0;points=[];" parent="Q3QKWWCa-f-8Z-aexDkw-6" vertex="1" connectable="0">
                    <mxGeometry x="0.1336" y="-1" relative="1" as="geometry">
                        <mxPoint as="offset"/>
                    </mxGeometry>
                </mxCell>
                <mxCell id="UP6xXsqPWXZBEHb_gk7--0" value="" style="curved=1;endArrow=classic;html=1;rounded=0;" parent="M7JWOXm7xKOBKCvq_NVv-1" edge="1">
                    <mxGeometry width="50" height="50" relative="1" as="geometry">
                        <mxPoint x="500" y="300" as="sourcePoint"/>
                        <mxPoint x="500" y="100" as="targetPoint"/>
                        <Array as="points">
                            <mxPoint x="580" y="180"/>
                        </Array>
                    </mxGeometry>
                </mxCell>
                <mxCell id="uSjXIb8hrFMV93OA6kSc-0" value="&lt;div style=&quot;color: rgb(177 , 231 , 177) ; background-color: rgb(0 , 32 , 32) ; font-family: &amp;#34;consolas&amp;#34; , &amp;#34;courier new&amp;#34; , monospace ; font-size: 14px ; line-height: 19px&quot;&gt;&lt;/div&gt;CustomUser&lt;br&gt;モデル" style="ellipse;shape=umlEntity;whiteSpace=wrap;html=1;fillColor=#d5e8d4;strokeColor=#82b366;" vertex="1" parent="M7JWOXm7xKOBKCvq_NVv-1">
                    <mxGeometry x="640" y="3" width="80" height="80" as="geometry"/>
                </mxCell>
                <mxCell id="uSjXIb8hrFMV93OA6kSc-1" value="" style="endArrow=classic;html=1;rounded=0;startArrow=classic;startFill=1;" edge="1" parent="M7JWOXm7xKOBKCvq_NVv-1">
                    <mxGeometry width="50" height="50" relative="1" as="geometry">
                        <mxPoint x="499" y="67" as="sourcePoint"/>
                        <mxPoint x="626" y="39" as="targetPoint"/>
                    </mxGeometry>
                </mxCell>
                <mxCell id="uSjXIb8hrFMV93OA6kSc-2" value="従業員IDを&lt;br&gt;取得する" style="edgeLabel;html=1;align=center;verticalAlign=middle;resizable=0;points=[];" vertex="1" connectable="0" parent="uSjXIb8hrFMV93OA6kSc-1">
                    <mxGeometry x="0.1118" y="1" relative="1" as="geometry">
                        <mxPoint x="-3" as="offset"/>
                    </mxGeometry>
                </mxCell>
            </root>
        </mxGraphModel>
    </diagram>
    <diagram id="Nx75vGViFoE-MNcZE8Wq" name="*従業員情報管理_削除">
        <mxGraphModel dx="1214" dy="739" grid="0" gridSize="10" guides="1" tooltips="1" connect="1" arrows="1" fold="1" page="0" pageScale="1" pageWidth="827" pageHeight="1169" math="0" shadow="0">
            <root>
                <mxCell id="oS5wxg1Q6HXezZ8grsT4-0"/>
                <mxCell id="oS5wxg1Q6HXezZ8grsT4-1" parent="oS5wxg1Q6HXezZ8grsT4-0"/>
                <mxCell id="oS5wxg1Q6HXezZ8grsT4-3" value="ログイン済&lt;br&gt;ホーム画面" style="shape=umlBoundary;whiteSpace=wrap;html=1;fillColor=#dae8fc;strokeColor=#6c8ebf;" parent="oS5wxg1Q6HXezZ8grsT4-1" vertex="1">
                    <mxGeometry x="120" y="40" width="100" height="80" as="geometry"/>
                </mxCell>
                <mxCell id="oS5wxg1Q6HXezZ8grsT4-4" value="従業員情報&lt;br&gt;一覧画面" style="shape=umlBoundary;whiteSpace=wrap;html=1;fillColor=#dae8fc;strokeColor=#6c8ebf;" parent="oS5wxg1Q6HXezZ8grsT4-1" vertex="1">
                    <mxGeometry x="120" y="160" width="100" height="80" as="geometry"/>
                </mxCell>
                <mxCell id="oS5wxg1Q6HXezZ8grsT4-5" value="従業員情報&lt;br&gt;を取得する" style="ellipse;shape=umlControl;whiteSpace=wrap;html=1;fillColor=#f8cecc;strokeColor=#b85450;" parent="oS5wxg1Q6HXezZ8grsT4-1" vertex="1">
                    <mxGeometry x="420" y="40" width="70" height="80" as="geometry"/>
                </mxCell>
                <mxCell id="oS5wxg1Q6HXezZ8grsT4-6" value="従業員情報&lt;br&gt;モデル" style="ellipse;shape=umlEntity;whiteSpace=wrap;html=1;fillColor=#d5e8d4;strokeColor=#82b366;" parent="oS5wxg1Q6HXezZ8grsT4-1" vertex="1">
                    <mxGeometry x="640" y="120" width="80" height="80" as="geometry"/>
                </mxCell>
                <mxCell id="oS5wxg1Q6HXezZ8grsT4-7" value="表示する" style="ellipse;shape=umlControl;whiteSpace=wrap;html=1;fillColor=#f8cecc;strokeColor=#b85450;" parent="oS5wxg1Q6HXezZ8grsT4-1" vertex="1">
                    <mxGeometry x="420" y="210" width="70" height="80" as="geometry"/>
                </mxCell>
                <mxCell id="oS5wxg1Q6HXezZ8grsT4-8" value="詳細画面" style="shape=umlBoundary;whiteSpace=wrap;html=1;fillColor=#dae8fc;strokeColor=#6c8ebf;" parent="oS5wxg1Q6HXezZ8grsT4-1" vertex="1">
                    <mxGeometry x="120" y="280" width="100" height="80" as="geometry"/>
                </mxCell>
                <mxCell id="oS5wxg1Q6HXezZ8grsT4-9" value="" style="endArrow=classic;html=1;rounded=0;exitX=1;exitY=0.5;exitDx=0;exitDy=0;exitPerimeter=0;entryX=-0.019;entryY=0.489;entryDx=0;entryDy=0;entryPerimeter=0;" parent="oS5wxg1Q6HXezZ8grsT4-1" source="oS5wxg1Q6HXezZ8grsT4-3" target="oS5wxg1Q6HXezZ8grsT4-5" edge="1">
                    <mxGeometry width="50" height="50" relative="1" as="geometry">
                        <mxPoint x="240" y="80" as="sourcePoint"/>
                        <mxPoint x="400" y="80" as="targetPoint"/>
                    </mxGeometry>
                </mxCell>
                <mxCell id="oS5wxg1Q6HXezZ8grsT4-11" value="" style="endArrow=classic;html=1;rounded=0;" parent="oS5wxg1Q6HXezZ8grsT4-1" edge="1">
                    <mxGeometry width="50" height="50" relative="1" as="geometry">
                        <mxPoint x="410" y="90" as="sourcePoint"/>
                        <mxPoint x="240" y="199.9999999999999" as="targetPoint"/>
                    </mxGeometry>
                </mxCell>
                <mxCell id="oS5wxg1Q6HXezZ8grsT4-12" value="" style="endArrow=classic;html=1;rounded=0;" parent="oS5wxg1Q6HXezZ8grsT4-1" edge="1">
                    <mxGeometry width="50" height="50" relative="1" as="geometry">
                        <mxPoint x="240" y="209.9999999999999" as="sourcePoint"/>
                        <mxPoint x="410" y="259.9999999999999" as="targetPoint"/>
                    </mxGeometry>
                </mxCell>
                <mxCell id="oS5wxg1Q6HXezZ8grsT4-13" value="" style="endArrow=classic;html=1;rounded=0;startArrow=classic;startFill=1;" parent="oS5wxg1Q6HXezZ8grsT4-1" edge="1">
                    <mxGeometry width="50" height="50" relative="1" as="geometry">
                        <mxPoint x="500" y="80" as="sourcePoint"/>
                        <mxPoint x="630" y="150" as="targetPoint"/>
                    </mxGeometry>
                </mxCell>
                <mxCell id="oS5wxg1Q6HXezZ8grsT4-14" value="削除する" style="ellipse;shape=umlControl;whiteSpace=wrap;html=1;fillColor=#f8cecc;strokeColor=#b85450;" parent="oS5wxg1Q6HXezZ8grsT4-1" vertex="1">
                    <mxGeometry x="420" y="360" width="70" height="80" as="geometry"/>
                </mxCell>
                <mxCell id="oS5wxg1Q6HXezZ8grsT4-15" value="" style="endArrow=classic;html=1;rounded=0;startArrow=classic;startFill=1;" parent="oS5wxg1Q6HXezZ8grsT4-1" edge="1">
                    <mxGeometry width="50" height="50" relative="1" as="geometry">
                        <mxPoint x="500" y="400" as="sourcePoint"/>
                        <mxPoint x="630" y="160" as="targetPoint"/>
                    </mxGeometry>
                </mxCell>
                <mxCell id="PKN-heq40vlHvnaVrdqO-0" value="指定された従業員情報を&lt;br&gt;無効化" style="edgeLabel;html=1;align=center;verticalAlign=middle;resizable=0;points=[];" parent="oS5wxg1Q6HXezZ8grsT4-15" vertex="1" connectable="0">
                    <mxGeometry x="0.249" y="-1" relative="1" as="geometry">
                        <mxPoint x="34" y="-12" as="offset"/>
                    </mxGeometry>
                </mxCell>
                <mxCell id="oS5wxg1Q6HXezZ8grsT4-16" value="" style="endArrow=classic;html=1;rounded=0;" parent="oS5wxg1Q6HXezZ8grsT4-1" edge="1">
                    <mxGeometry width="50" height="50" relative="1" as="geometry">
                        <mxPoint x="400" y="269.9999999999999" as="sourcePoint"/>
                        <mxPoint x="240" y="320" as="targetPoint"/>
                    </mxGeometry>
                </mxCell>
                <mxCell id="oS5wxg1Q6HXezZ8grsT4-17" value="" style="endArrow=classic;html=1;rounded=0;" parent="oS5wxg1Q6HXezZ8grsT4-1" edge="1">
                    <mxGeometry width="50" height="50" relative="1" as="geometry">
                        <mxPoint x="240" y="330" as="sourcePoint"/>
                        <mxPoint x="410" y="400" as="targetPoint"/>
                    </mxGeometry>
                </mxCell>
                <mxCell id="AJ3POzuVrGBr5XfB09Bv-0" value="従業員情報管理_削除" style="rounded=0;whiteSpace=wrap;html=1;fillColor=#ffe6cc;strokeColor=#d79b00;fontStyle=1;fontSize=18;" parent="oS5wxg1Q6HXezZ8grsT4-1" vertex="1">
                    <mxGeometry x="-138" y="-37" width="189" height="60" as="geometry"/>
                </mxCell>
                <mxCell id="QFZjaa1xHu3H2fQnPVFu-0" value="正規社員" style="shape=umlActor;verticalLabelPosition=bottom;verticalAlign=top;html=1;" parent="oS5wxg1Q6HXezZ8grsT4-1" vertex="1">
                    <mxGeometry x="-110" y="173" width="30" height="60" as="geometry"/>
                </mxCell>
                <mxCell id="QFZjaa1xHu3H2fQnPVFu-1" value="" style="endArrow=classic;html=1;rounded=0;" parent="oS5wxg1Q6HXezZ8grsT4-1" edge="1">
                    <mxGeometry width="50" height="50" relative="1" as="geometry">
                        <mxPoint x="-60" y="200" as="sourcePoint"/>
                        <mxPoint x="110" y="80" as="targetPoint"/>
                    </mxGeometry>
                </mxCell>
                <mxCell id="QFZjaa1xHu3H2fQnPVFu-2" value="「従業員情報マスタ」&lt;br&gt;を押下" style="edgeLabel;html=1;align=center;verticalAlign=middle;resizable=0;points=[];" parent="QFZjaa1xHu3H2fQnPVFu-1" vertex="1" connectable="0">
                    <mxGeometry x="-0.2219" relative="1" as="geometry">
                        <mxPoint x="17" y="-13" as="offset"/>
                    </mxGeometry>
                </mxCell>
                <mxCell id="QFZjaa1xHu3H2fQnPVFu-3" value="" style="endArrow=classic;html=1;rounded=0;" parent="oS5wxg1Q6HXezZ8grsT4-1" edge="1">
                    <mxGeometry width="50" height="50" relative="1" as="geometry">
                        <mxPoint x="-60" y="200" as="sourcePoint"/>
                        <mxPoint x="110" y="200" as="targetPoint"/>
                    </mxGeometry>
                </mxCell>
                <mxCell id="QFZjaa1xHu3H2fQnPVFu-4" value="従業員を選択" style="edgeLabel;html=1;align=center;verticalAlign=middle;resizable=0;points=[];" parent="QFZjaa1xHu3H2fQnPVFu-3" vertex="1" connectable="0">
                    <mxGeometry x="0.1901" y="-2" relative="1" as="geometry">
                        <mxPoint as="offset"/>
                    </mxGeometry>
                </mxCell>
                <mxCell id="QFZjaa1xHu3H2fQnPVFu-5" value="" style="endArrow=classic;html=1;rounded=0;" parent="oS5wxg1Q6HXezZ8grsT4-1" edge="1">
                    <mxGeometry width="50" height="50" relative="1" as="geometry">
                        <mxPoint x="-60" y="200" as="sourcePoint"/>
                        <mxPoint x="110" y="320" as="targetPoint"/>
                    </mxGeometry>
                </mxCell>
                <mxCell id="mJr0DQ7VbdjP2wzefGI6-0" value="「削除」を押下" style="edgeLabel;html=1;align=center;verticalAlign=middle;resizable=0;points=[];" parent="QFZjaa1xHu3H2fQnPVFu-5" vertex="1" connectable="0">
                    <mxGeometry x="0.2051" y="-3" relative="1" as="geometry">
                        <mxPoint x="-13" y="-9" as="offset"/>
                    </mxGeometry>
                </mxCell>
                <mxCell id="SfiQU3PJE5CwOAcPhYpT-0" value="" style="curved=1;endArrow=classic;html=1;rounded=0;" parent="oS5wxg1Q6HXezZ8grsT4-1" edge="1">
                    <mxGeometry width="50" height="50" relative="1" as="geometry">
                        <mxPoint x="490" y="380" as="sourcePoint"/>
                        <mxPoint x="500" y="100" as="targetPoint"/>
                        <Array as="points">
                            <mxPoint x="580" y="180"/>
                        </Array>
                    </mxGeometry>
                </mxCell>
                <mxCell id="52VynN2vp21azeh99jhf-0" value="&lt;div style=&quot;color: rgb(177 , 231 , 177) ; background-color: rgb(0 , 32 , 32) ; font-family: &amp;#34;consolas&amp;#34; , &amp;#34;courier new&amp;#34; , monospace ; font-size: 14px ; line-height: 19px&quot;&gt;&lt;/div&gt;CustomUser&lt;br&gt;モデル" style="ellipse;shape=umlEntity;whiteSpace=wrap;html=1;fillColor=#d5e8d4;strokeColor=#82b366;" vertex="1" parent="oS5wxg1Q6HXezZ8grsT4-1">
                    <mxGeometry x="640" y="-1" width="80" height="80" as="geometry"/>
                </mxCell>
                <mxCell id="52VynN2vp21azeh99jhf-1" value="" style="endArrow=classic;html=1;rounded=0;startArrow=classic;startFill=1;" edge="1" parent="oS5wxg1Q6HXezZ8grsT4-1">
                    <mxGeometry width="50" height="50" relative="1" as="geometry">
                        <mxPoint x="499" y="69" as="sourcePoint"/>
                        <mxPoint x="629" y="39" as="targetPoint"/>
                    </mxGeometry>
                </mxCell>
                <mxCell id="52VynN2vp21azeh99jhf-2" value="従業員IDを&lt;br&gt;取得する" style="edgeLabel;html=1;align=center;verticalAlign=middle;resizable=0;points=[];" vertex="1" connectable="0" parent="52VynN2vp21azeh99jhf-1">
                    <mxGeometry x="0.1118" y="1" relative="1" as="geometry">
                        <mxPoint x="-3" as="offset"/>
                    </mxGeometry>
                </mxCell>
            </root>
        </mxGraphModel>
    </diagram>
    <diagram id="OSO4O63BFoZP4wHCJO6B" name="*従業員情報管理_完全削除">
        <mxGraphModel dx="1214" dy="739" grid="0" gridSize="10" guides="1" tooltips="1" connect="1" arrows="1" fold="1" page="0" pageScale="1" pageWidth="827" pageHeight="1169" math="0" shadow="0">
            <root>
                <mxCell id="2CbTUjZamSjC3_LLYE4Z-0"/>
                <mxCell id="2CbTUjZamSjC3_LLYE4Z-1" parent="2CbTUjZamSjC3_LLYE4Z-0"/>
                <mxCell id="2CbTUjZamSjC3_LLYE4Z-3" value="ログイン済&lt;br&gt;ホーム画面" style="shape=umlBoundary;whiteSpace=wrap;html=1;fillColor=#dae8fc;strokeColor=#6c8ebf;" parent="2CbTUjZamSjC3_LLYE4Z-1" vertex="1">
                    <mxGeometry x="120" y="40" width="100" height="80" as="geometry"/>
                </mxCell>
                <mxCell id="2CbTUjZamSjC3_LLYE4Z-4" value="従業員情報&lt;br&gt;一覧画面" style="shape=umlBoundary;whiteSpace=wrap;html=1;fillColor=#dae8fc;strokeColor=#6c8ebf;" parent="2CbTUjZamSjC3_LLYE4Z-1" vertex="1">
                    <mxGeometry x="120" y="160" width="100" height="80" as="geometry"/>
                </mxCell>
                <mxCell id="2CbTUjZamSjC3_LLYE4Z-5" value="従業員情報&lt;br&gt;を取得する" style="ellipse;shape=umlControl;whiteSpace=wrap;html=1;fillColor=#f8cecc;strokeColor=#b85450;" parent="2CbTUjZamSjC3_LLYE4Z-1" vertex="1">
                    <mxGeometry x="420" y="40" width="70" height="80" as="geometry"/>
                </mxCell>
                <mxCell id="2CbTUjZamSjC3_LLYE4Z-6" value="従業員情報&lt;br&gt;モデル" style="ellipse;shape=umlEntity;whiteSpace=wrap;html=1;fillColor=#d5e8d4;strokeColor=#82b366;" parent="2CbTUjZamSjC3_LLYE4Z-1" vertex="1">
                    <mxGeometry x="640" y="120" width="80" height="80" as="geometry"/>
                </mxCell>
                <mxCell id="2CbTUjZamSjC3_LLYE4Z-7" value="表示する" style="ellipse;shape=umlControl;whiteSpace=wrap;html=1;fillColor=#f8cecc;strokeColor=#b85450;" parent="2CbTUjZamSjC3_LLYE4Z-1" vertex="1">
                    <mxGeometry x="420" y="210" width="70" height="80" as="geometry"/>
                </mxCell>
                <mxCell id="2CbTUjZamSjC3_LLYE4Z-8" value="詳細画面" style="shape=umlBoundary;whiteSpace=wrap;html=1;fillColor=#dae8fc;strokeColor=#6c8ebf;" parent="2CbTUjZamSjC3_LLYE4Z-1" vertex="1">
                    <mxGeometry x="120" y="280" width="100" height="80" as="geometry"/>
                </mxCell>
                <mxCell id="2CbTUjZamSjC3_LLYE4Z-9" value="" style="endArrow=classic;html=1;rounded=0;exitX=1;exitY=0.5;exitDx=0;exitDy=0;exitPerimeter=0;entryX=-0.019;entryY=0.489;entryDx=0;entryDy=0;entryPerimeter=0;" parent="2CbTUjZamSjC3_LLYE4Z-1" source="2CbTUjZamSjC3_LLYE4Z-3" target="2CbTUjZamSjC3_LLYE4Z-5" edge="1">
                    <mxGeometry width="50" height="50" relative="1" as="geometry">
                        <mxPoint x="240" y="80" as="sourcePoint"/>
                        <mxPoint x="400" y="80" as="targetPoint"/>
                    </mxGeometry>
                </mxCell>
                <mxCell id="2CbTUjZamSjC3_LLYE4Z-10" value="「従業員情報マスタ」&lt;br&gt;を押下" style="text;html=1;strokeColor=none;fillColor=none;align=center;verticalAlign=middle;whiteSpace=wrap;rounded=0;" parent="2CbTUjZamSjC3_LLYE4Z-1" vertex="1">
                    <mxGeometry x="230" y="40" width="160" height="30" as="geometry"/>
                </mxCell>
                <mxCell id="2CbTUjZamSjC3_LLYE4Z-11" value="" style="endArrow=classic;html=1;rounded=0;" parent="2CbTUjZamSjC3_LLYE4Z-1" edge="1">
                    <mxGeometry width="50" height="50" relative="1" as="geometry">
                        <mxPoint x="410" y="90" as="sourcePoint"/>
                        <mxPoint x="240" y="199.9999999999999" as="targetPoint"/>
                    </mxGeometry>
                </mxCell>
                <mxCell id="2CbTUjZamSjC3_LLYE4Z-12" value="" style="endArrow=classic;html=1;rounded=0;" parent="2CbTUjZamSjC3_LLYE4Z-1" edge="1">
                    <mxGeometry width="50" height="50" relative="1" as="geometry">
                        <mxPoint x="240" y="209.9999999999999" as="sourcePoint"/>
                        <mxPoint x="410" y="259.9999999999999" as="targetPoint"/>
                    </mxGeometry>
                </mxCell>
                <mxCell id="2CbTUjZamSjC3_LLYE4Z-13" value="" style="endArrow=classic;html=1;rounded=0;startArrow=classic;startFill=1;" parent="2CbTUjZamSjC3_LLYE4Z-1" edge="1">
                    <mxGeometry width="50" height="50" relative="1" as="geometry">
                        <mxPoint x="500" y="80" as="sourcePoint"/>
                        <mxPoint x="630" y="150" as="targetPoint"/>
                    </mxGeometry>
                </mxCell>
                <mxCell id="2CbTUjZamSjC3_LLYE4Z-14" value="完全削除&lt;br&gt;する" style="ellipse;shape=umlControl;whiteSpace=wrap;html=1;fillColor=#f8cecc;strokeColor=#b85450;" parent="2CbTUjZamSjC3_LLYE4Z-1" vertex="1">
                    <mxGeometry x="420" y="360" width="70" height="80" as="geometry"/>
                </mxCell>
                <mxCell id="2CbTUjZamSjC3_LLYE4Z-15" value="" style="endArrow=classic;html=1;rounded=0;startArrow=classic;startFill=1;" parent="2CbTUjZamSjC3_LLYE4Z-1" edge="1">
                    <mxGeometry width="50" height="50" relative="1" as="geometry">
                        <mxPoint x="500" y="400" as="sourcePoint"/>
                        <mxPoint x="630" y="160" as="targetPoint"/>
                    </mxGeometry>
                </mxCell>
                <mxCell id="w5j9gDCwtYdJnNVoVLTV-1" value="指定された従業員情報を&lt;br&gt;システムから削除" style="edgeLabel;html=1;align=center;verticalAlign=middle;resizable=0;points=[];" parent="2CbTUjZamSjC3_LLYE4Z-15" vertex="1" connectable="0">
                    <mxGeometry x="0.4504" y="-2" relative="1" as="geometry">
                        <mxPoint x="27" as="offset"/>
                    </mxGeometry>
                </mxCell>
                <mxCell id="2CbTUjZamSjC3_LLYE4Z-16" value="" style="endArrow=classic;html=1;rounded=0;" parent="2CbTUjZamSjC3_LLYE4Z-1" edge="1">
                    <mxGeometry width="50" height="50" relative="1" as="geometry">
                        <mxPoint x="400" y="269.9999999999999" as="sourcePoint"/>
                        <mxPoint x="240" y="320" as="targetPoint"/>
                    </mxGeometry>
                </mxCell>
                <mxCell id="2CbTUjZamSjC3_LLYE4Z-17" value="" style="endArrow=classic;html=1;rounded=0;" parent="2CbTUjZamSjC3_LLYE4Z-1" edge="1">
                    <mxGeometry width="50" height="50" relative="1" as="geometry">
                        <mxPoint x="240" y="330" as="sourcePoint"/>
                        <mxPoint x="410" y="400" as="targetPoint"/>
                    </mxGeometry>
                </mxCell>
                <mxCell id="HnC04TZpt9WaJ-vy0PrU-0" value="従業員マスタ" style="rounded=0;whiteSpace=wrap;html=1;fillColor=#ffe6cc;strokeColor=#d79b00;fontStyle=1;fontSize=18;" parent="2CbTUjZamSjC3_LLYE4Z-1" vertex="1">
                    <mxGeometry x="-138" y="-37" width="218" height="60" as="geometry"/>
                </mxCell>
                <mxCell id="ejgq3l3k_ea2lgflVU3s-0" value="管理者" style="shape=umlActor;verticalLabelPosition=bottom;verticalAlign=top;html=1;" parent="2CbTUjZamSjC3_LLYE4Z-1" vertex="1">
                    <mxGeometry x="-110" y="173" width="30" height="60" as="geometry"/>
                </mxCell>
                <mxCell id="ejgq3l3k_ea2lgflVU3s-1" value="" style="endArrow=classic;html=1;rounded=0;" parent="2CbTUjZamSjC3_LLYE4Z-1" edge="1">
                    <mxGeometry width="50" height="50" relative="1" as="geometry">
                        <mxPoint x="-60" y="200" as="sourcePoint"/>
                        <mxPoint x="110" y="80" as="targetPoint"/>
                    </mxGeometry>
                </mxCell>
                <mxCell id="ejgq3l3k_ea2lgflVU3s-2" value="「従業員情報マスタ」&lt;br&gt;を押下" style="edgeLabel;html=1;align=center;verticalAlign=middle;resizable=0;points=[];" parent="ejgq3l3k_ea2lgflVU3s-1" vertex="1" connectable="0">
                    <mxGeometry x="-0.2219" relative="1" as="geometry">
                        <mxPoint x="17" y="-13" as="offset"/>
                    </mxGeometry>
                </mxCell>
                <mxCell id="ejgq3l3k_ea2lgflVU3s-3" value="" style="endArrow=classic;html=1;rounded=0;" parent="2CbTUjZamSjC3_LLYE4Z-1" edge="1">
                    <mxGeometry width="50" height="50" relative="1" as="geometry">
                        <mxPoint x="-60" y="200" as="sourcePoint"/>
                        <mxPoint x="110" y="200" as="targetPoint"/>
                    </mxGeometry>
                </mxCell>
                <mxCell id="ejgq3l3k_ea2lgflVU3s-4" value="従業員を選択" style="edgeLabel;html=1;align=center;verticalAlign=middle;resizable=0;points=[];" parent="ejgq3l3k_ea2lgflVU3s-3" vertex="1" connectable="0">
                    <mxGeometry x="0.1901" y="-2" relative="1" as="geometry">
                        <mxPoint as="offset"/>
                    </mxGeometry>
                </mxCell>
                <mxCell id="ejgq3l3k_ea2lgflVU3s-5" value="" style="endArrow=classic;html=1;rounded=0;" parent="2CbTUjZamSjC3_LLYE4Z-1" edge="1">
                    <mxGeometry width="50" height="50" relative="1" as="geometry">
                        <mxPoint x="-60" y="200" as="sourcePoint"/>
                        <mxPoint x="110" y="320" as="targetPoint"/>
                    </mxGeometry>
                </mxCell>
                <mxCell id="hARVzunXm-gzCWblTabT-0" value="「削除」を押下" style="edgeLabel;html=1;align=center;verticalAlign=middle;resizable=0;points=[];" parent="ejgq3l3k_ea2lgflVU3s-5" vertex="1" connectable="0">
                    <mxGeometry x="0.2032" y="-2" relative="1" as="geometry">
                        <mxPoint x="-3" y="-7" as="offset"/>
                    </mxGeometry>
                </mxCell>
                <mxCell id="7PaPxxTKs2wufhZ3Sxi4-0" value="" style="curved=1;endArrow=classic;html=1;rounded=0;" parent="2CbTUjZamSjC3_LLYE4Z-1" edge="1">
                    <mxGeometry width="50" height="50" relative="1" as="geometry">
                        <mxPoint x="490" y="380" as="sourcePoint"/>
                        <mxPoint x="500" y="100" as="targetPoint"/>
                        <Array as="points">
                            <mxPoint x="580" y="180"/>
                        </Array>
                    </mxGeometry>
                </mxCell>
                <mxCell id="9FPLzHU09OvFsvIZyy7K-0" value="&lt;div style=&quot;color: rgb(177 , 231 , 177) ; background-color: rgb(0 , 32 , 32) ; font-family: &amp;#34;consolas&amp;#34; , &amp;#34;courier new&amp;#34; , monospace ; font-size: 14px ; line-height: 19px&quot;&gt;&lt;/div&gt;CustomUser&lt;br&gt;モデル" style="ellipse;shape=umlEntity;whiteSpace=wrap;html=1;fillColor=#d5e8d4;strokeColor=#82b366;" vertex="1" parent="2CbTUjZamSjC3_LLYE4Z-1">
                    <mxGeometry x="640" y="7" width="80" height="80" as="geometry"/>
                </mxCell>
                <mxCell id="9FPLzHU09OvFsvIZyy7K-1" value="" style="endArrow=classic;html=1;rounded=0;startArrow=classic;startFill=1;" edge="1" parent="2CbTUjZamSjC3_LLYE4Z-1">
                    <mxGeometry width="50" height="50" relative="1" as="geometry">
                        <mxPoint x="498" y="68" as="sourcePoint"/>
                        <mxPoint x="626" y="43" as="targetPoint"/>
                    </mxGeometry>
                </mxCell>
                <mxCell id="9FPLzHU09OvFsvIZyy7K-2" value="従業員IDを&lt;br&gt;取得する" style="edgeLabel;html=1;align=center;verticalAlign=middle;resizable=0;points=[];" vertex="1" connectable="0" parent="9FPLzHU09OvFsvIZyy7K-1">
                    <mxGeometry x="0.1118" y="1" relative="1" as="geometry">
                        <mxPoint x="-3" as="offset"/>
                    </mxGeometry>
                </mxCell>
            </root>
        </mxGraphModel>
    </diagram>
</mxfile>